<svg width="41" height="42" viewBox="0 0 41 42" fill="none" xmlns="http://www.w3.org/2000/svg">
<g clip-path="url(#clip0_2103_9483)">
<path d="M39.3142 35.2636H35.1992V30.1903C36.2544 29.9213 37.1903 29.3092 37.8598 28.4503C38.5293 27.5914 38.8943 26.5343 38.8975 25.4453V21.662C38.8975 20.358 38.3795 19.1074 37.4574 18.1854C36.5354 17.2633 35.2848 16.7453 33.9808 16.7453C32.6768 16.7453 31.4263 17.2633 30.5042 18.1854C29.5822 19.1074 29.0642 20.358 29.0642 21.662V25.4386C29.0674 26.5162 29.4251 27.5628 30.082 28.417C30.7389 29.2711 31.6586 29.8855 32.6992 30.1653V35.2636H26.0642V9.88863C26.0642 5.83197 23.8558 3.59863 19.8425 3.59863H9.4658C5.4408 3.59863 3.22413 5.83197 3.22413 9.88863V35.2636H2.64746C2.31594 35.2636 1.998 35.3953 1.76358 35.6298C1.52916 35.8642 1.39746 36.1821 1.39746 36.5136C1.39746 36.8452 1.52916 37.1631 1.76358 37.3975C1.998 37.6319 2.31594 37.7636 2.64746 37.7636H33.8525C33.8858 37.7636 33.9158 37.782 33.9492 37.782C33.9825 37.782 34.0125 37.7653 34.0458 37.7636H39.3142C39.6457 37.7636 39.9636 37.6319 40.198 37.3975C40.4325 37.1631 40.5642 36.8452 40.5642 36.5136C40.5642 36.1821 40.4325 35.8642 40.198 35.6298C39.9636 35.3953 39.6457 35.2636 39.3142 35.2636ZM23.5642 35.2636H15.9808V30.2636C15.9808 29.9321 15.8491 29.6142 15.6147 29.3798C15.3803 29.1453 15.0623 29.0136 14.7308 29.0136C14.3993 29.0136 14.0814 29.1453 13.8469 29.3798C13.6125 29.6142 13.4808 29.9321 13.4808 30.2636V35.2636H5.72913V9.88863C5.72913 7.23197 6.84913 6.09863 9.4708 6.09863H19.8475C22.4558 6.09863 23.5692 7.23197 23.5692 9.88863L23.5642 35.2636ZM33.9808 27.857C33.34 27.8565 32.7256 27.6018 32.2725 27.1487C31.8194 26.6955 31.5646 26.0811 31.5642 25.4403V21.662C31.5642 21.021 31.8188 20.4063 32.272 19.9531C32.7252 19.4999 33.3399 19.2453 33.9808 19.2453C34.6218 19.2453 35.2365 19.4999 35.6897 19.9531C36.1429 20.4063 36.3975 21.021 36.3975 21.662V25.4386C36.3975 26.0797 36.1429 26.6946 35.6898 27.1481C35.2366 27.6016 34.6219 27.8565 33.9808 27.857ZM20.1475 13.5986C20.1475 13.9302 20.0158 14.2481 19.7814 14.4825C19.547 14.7169 19.229 14.8486 18.8975 14.8486H10.6475C10.4753 14.8627 10.3021 14.841 10.1387 14.7848C9.97538 14.7286 9.82546 14.6391 9.69842 14.522C9.57139 14.405 9.47 14.2629 9.40064 14.1046C9.33129 13.9464 9.29549 13.7756 9.29549 13.6028C9.29549 13.4301 9.33129 13.2592 9.40064 13.101C9.47 12.9428 9.57139 12.8006 9.69842 12.6836C9.82546 12.5665 9.97538 12.4771 10.1387 12.4208C10.3021 12.3646 10.4753 12.3429 10.6475 12.357H18.8975C19.2276 12.357 19.5443 12.4875 19.7784 12.7201C20.0126 12.9528 20.1453 13.2686 20.1475 13.5986ZM20.1475 19.847C20.1475 20.1785 20.0158 20.4964 19.7814 20.7309C19.547 20.9653 19.229 21.097 18.8975 21.097H10.6475C10.3159 21.097 9.998 20.9653 9.76358 20.7309C9.52916 20.4964 9.39746 20.1785 9.39746 19.847C9.39746 19.5155 9.52916 19.1975 9.76358 18.9631C9.998 18.7287 10.3159 18.597 10.6475 18.597H18.8975C19.229 18.597 19.547 18.7287 19.7814 18.9631C20.0158 19.1975 20.1475 19.5155 20.1475 19.847Z" fill="#EB662B"/>
</g>
<defs>
<clipPath id="clip0_2103_9483">
<rect width="40" height="41" fill="white" transform="translate(0.980469 0.590088)"/>
</clipPath>
</defs>
</svg>
