<svg width="41" height="42" viewBox="0 0 41 42" fill="none" xmlns="http://www.w3.org/2000/svg">
<g clip-path="url(#clip0_2103_9491)">
<g clip-path="url(#clip1_2103_9491)">
<path d="M39.3044 36.0353H38.8877V32.2853C38.8868 31.512 38.5792 30.7707 38.0324 30.2239C37.4857 29.6771 36.7443 29.3695 35.971 29.3686H35.5544V20.202H35.971C36.7443 20.2011 37.4857 19.8935 38.0324 19.3467C38.5792 18.7999 38.8868 18.0586 38.8877 17.2853V11.747C38.8695 11.1686 38.6875 10.6072 38.363 10.1281C38.0385 9.64901 37.5847 9.2718 37.0544 9.0403L22.0544 3.0403C21.3551 2.78279 20.587 2.78279 19.8877 3.0403L4.88769 9.0403C4.35722 9.27163 3.90332 9.6488 3.57878 10.128C3.25423 10.6071 3.07238 11.1685 3.05436 11.747V17.2853C3.05524 18.0586 3.36282 18.7999 3.90961 19.3467C4.4564 19.8935 5.19775 20.2011 5.97103 20.202H6.38769V29.3686H5.97103C5.19775 29.3695 4.4564 29.6771 3.90961 30.2239C3.36282 30.7707 3.05524 31.512 3.05436 32.2853V36.0353H2.63769C2.30617 36.0353 1.98823 36.167 1.75381 36.4014C1.51939 36.6358 1.3877 36.9538 1.3877 37.2853C1.3877 37.6168 1.51939 37.9348 1.75381 38.1692C1.98823 38.4036 2.30617 38.5353 2.63769 38.5353H39.3044C39.6359 38.5353 39.9538 38.4036 40.1882 38.1692C40.4227 37.9348 40.5544 37.6168 40.5544 37.2853C40.5544 36.9538 40.4227 36.6358 40.1882 36.4014C39.9538 36.167 39.6359 36.0353 39.3044 36.0353ZM5.97103 17.702C5.86092 17.7007 5.75569 17.6564 5.67783 17.5785C5.59997 17.5006 5.55566 17.3954 5.55436 17.2853V11.747C5.57013 11.6679 5.60136 11.5928 5.64627 11.5259C5.69118 11.4589 5.74887 11.4015 5.81603 11.357L20.8044 5.35696C20.8592 5.34569 20.9151 5.34066 20.971 5.34196C21.027 5.34047 21.0829 5.3455 21.1377 5.35696L36.1377 11.357C36.2716 11.4469 36.3649 11.5857 36.3977 11.7436V17.2853C36.3964 17.3954 36.3521 17.5006 36.2742 17.5785C36.1964 17.6564 36.0911 17.7007 35.981 17.702H5.97103ZM33.0544 20.202V29.3686H28.8877V20.202H33.0544ZM26.3877 20.202V29.3686H22.221V20.202H26.3877ZM19.721 20.202V29.3686H15.5544V20.202H19.721ZM13.0544 20.202V29.3686H8.88769V20.202H13.0544ZM36.3877 36.0353H5.55436V32.2853C5.55436 32.1748 5.59826 32.0688 5.6764 31.9907C5.75454 31.9125 5.86052 31.8686 5.97103 31.8686H35.971C36.0815 31.8686 36.1875 31.9125 36.2657 31.9907C36.3438 32.0688 36.3877 32.1748 36.3877 32.2853V36.0353ZM20.971 8.5353C20.2293 8.5353 19.5043 8.75523 18.8876 9.16729C18.271 9.57934 17.7903 10.165 17.5065 10.8502C17.2227 11.5355 17.1484 12.2895 17.2931 13.0169C17.4378 13.7443 17.7949 14.4125 18.3194 14.937C18.8438 15.4614 19.512 15.8186 20.2394 15.9633C20.9669 16.1079 21.7209 16.0337 22.4061 15.7499C23.0913 15.466 23.677 14.9854 24.089 14.3687C24.5011 13.752 24.721 13.027 24.721 12.2853C24.7197 11.2912 24.3242 10.3381 23.6212 9.63511C22.9182 8.93213 21.9652 8.53662 20.971 8.5353ZM20.971 13.5353C20.7238 13.5353 20.4821 13.462 20.2766 13.3246C20.071 13.1873 19.9108 12.9921 19.8162 12.7637C19.7216 12.5353 19.6968 12.2839 19.745 12.0414C19.7933 11.799 19.9123 11.5762 20.0871 11.4014C20.262 11.2266 20.4847 11.1076 20.7272 11.0593C20.9696 11.0111 21.221 11.0358 21.4494 11.1305C21.6778 11.2251 21.873 11.3853 22.0104 11.5908C22.1477 11.7964 22.221 12.0381 22.221 12.2853C22.2201 12.6166 22.0882 12.934 21.8539 13.1682C21.6197 13.4024 21.3023 13.5344 20.971 13.5353Z" fill="#EB662B"/>
</g>
</g>
<defs>
<clipPath id="clip0_2103_9491">
<rect width="40" height="41" fill="white" transform="translate(0.970703 0.590088)"/>
</clipPath>
<clipPath id="clip1_2103_9491">
<rect width="40" height="41" fill="white" transform="translate(0.970703 0.590088)"/>
</clipPath>
</defs>
</svg>
