<svg width="41" height="42" viewBox="0 0 41 42" fill="none" xmlns="http://www.w3.org/2000/svg">
<g clip-path="url(#clip0_2103_9499)">
<g clip-path="url(#clip1_2103_9499)">
<g clip-path="url(#clip2_2103_9499)">
<mask id="mask0_2103_9499" style="mask-type:luminance" maskUnits="userSpaceOnUse" x="0" y="0" width="41" height="41">
<path d="M40.9502 0.690186H0.950195V40.6902H40.9502V0.690186Z" fill="white"/>
</mask>
<g mask="url(#mask0_2103_9499)">
<path d="M39.7783 36.9969C38.485 36.9969 37.9015 36.7064 37.1628 36.3385C36.8579 36.1867 36.5382 36.0278 36.169 35.8861L40.1272 25.4735C40.4352 24.663 40.3841 23.7563 39.9868 22.9857C39.5896 22.215 38.8806 21.6474 38.0418 21.4282L35.3164 20.7161V12.5421C35.3164 10.8267 33.9207 9.43104 32.2053 9.43104H26.8263V6.40652C26.8263 3.9987 24.8674 2.03979 22.4596 2.03979H19.4409C17.0331 2.03979 15.0742 3.9987 15.0742 6.40652V9.43097H9.6952C7.97973 9.43097 6.58411 10.8266 6.58411 12.5421V20.7161L3.85864 21.4282C3.01981 21.6474 2.31083 22.215 1.91363 22.9857C1.51645 23.7563 1.4652 24.663 1.77332 25.4735L5.73145 35.8863C5.36239 36.0279 5.0427 36.1868 4.73793 36.3386C3.99911 36.7064 3.41559 36.997 2.12208 36.997C1.47488 36.997 0.950195 37.5217 0.950195 38.1689C0.950195 38.8161 1.47488 39.3407 2.12208 39.3407C3.96676 39.3407 4.93145 38.8604 5.78254 38.4367C6.52137 38.0689 7.10489 37.7782 8.3984 37.7782C9.69192 37.7782 10.2754 38.0688 11.0143 38.4367C11.8654 38.8604 12.83 39.3407 14.6747 39.3407C16.5193 39.3407 17.4839 38.8604 18.3351 38.4367C19.0739 38.0689 19.6574 37.7782 20.9507 37.7782C22.2441 37.7782 22.8275 38.0688 23.5663 38.4367C24.4174 38.8604 25.382 39.3407 27.2266 39.3407C29.0712 39.3407 30.0358 38.8604 30.8869 38.4367C31.6257 38.0689 32.2092 37.7782 33.5025 37.7782C34.7959 37.7782 35.3793 38.0688 36.1181 38.4367C36.9692 38.8604 37.9338 39.3407 39.7784 39.3407C40.4256 39.3407 40.9503 38.8161 40.9503 38.1689C40.9503 37.5217 40.4255 36.9969 39.7783 36.9969ZM17.4179 6.40652C17.4179 5.29105 18.3254 4.38354 19.4409 4.38354H22.4596C23.575 4.38354 24.4825 5.29105 24.4825 6.40652V9.43097H17.4179V6.40652ZM8.92778 12.5421C8.92778 12.119 9.272 11.7748 9.69512 11.7748H32.2052C32.6283 11.7748 32.9725 12.119 32.9725 12.5421V20.1038L21.2464 17.0399C21.0522 16.9892 20.8481 16.9892 20.6539 17.0399L8.9277 20.1038L8.92778 12.5421ZM29.8422 36.3386C29.1034 36.7064 28.5199 36.9969 27.2266 36.9969C25.9333 36.9969 25.3498 36.7064 24.6111 36.3385C23.76 35.9147 22.7954 35.4344 20.9507 35.4344C19.1061 35.4344 18.1415 35.9147 17.2904 36.3385C16.5516 36.7063 15.9681 36.9969 14.6747 36.9969C13.3813 36.9969 12.7977 36.7064 12.059 36.3385C11.2079 35.9147 10.2432 35.4344 8.39848 35.4344C8.28543 35.4344 8.17575 35.4363 8.06911 35.4397L3.96403 24.6407C3.86551 24.3815 3.94231 24.1654 3.99684 24.0596C4.05137 23.9539 4.18286 23.766 4.45106 23.6959L20.9502 19.3849L37.4493 23.696C37.7175 23.766 37.849 23.9539 37.9036 24.0596C37.9581 24.1654 38.0349 24.3815 37.9364 24.6407L33.8314 35.4398C33.7249 35.4364 33.6154 35.4345 33.5025 35.4345C31.6579 35.4344 30.6932 35.9148 29.8422 36.3386Z" fill="#EB662B"/>
<path d="M31.7844 25.3821L21.2465 22.6286C21.0523 22.5779 20.8483 22.5779 20.654 22.6286L10.1162 25.3821C9.48998 25.5456 9.11498 26.186 9.27857 26.8121C9.44216 27.4383 10.0825 27.8132 10.7087 27.6497L20.9503 24.9737L31.1919 27.6497C31.2912 27.6757 31.3909 27.6881 31.489 27.6881C32.0092 27.6881 32.4844 27.339 32.6219 26.8121C32.7856 26.186 32.4106 25.5456 31.7844 25.3821Z" fill="#EB662B"/>
</g>
</g>
</g>
</g>
<defs>
<clipPath id="clip0_2103_9499">
<rect width="40" height="41" fill="white" transform="translate(0.950195 0.590088)"/>
</clipPath>
<clipPath id="clip1_2103_9499">
<rect width="40" height="41" fill="white" transform="translate(0.950195 0.590088)"/>
</clipPath>
<clipPath id="clip2_2103_9499">
<rect width="40" height="41" fill="white" transform="translate(0.950195 0.590088)"/>
</clipPath>
</defs>
</svg>
