<svg width="41" height="42" viewBox="0 0 41 42" fill="none" xmlns="http://www.w3.org/2000/svg">
<g clip-path="url(#clip0_2103_9537)">
<g clip-path="url(#clip1_2103_9537)">
<g clip-path="url(#clip2_2103_9537)">
<mask id="mask0_2103_9537" style="mask-type:luminance" maskUnits="userSpaceOnUse" x="0" y="0" width="41" height="41">
<path d="M40.9502 0.190186H0.950195V40.1902H40.9502V0.190186Z" fill="white"/>
</mask>
<g mask="url(#mask0_2103_9537)">
<path d="M32.8643 7.61241H30.9111V2.92382C30.9111 2.04905 30.4879 1.22077 29.7791 0.708193C29.0703 0.195615 28.1511 0.0530371 27.3203 0.327099L8.17958 6.64007C7.05637 7.01062 6.30176 8.05421 6.30176 9.23687V31.0756V37.4558C6.30176 38.9635 7.5284 40.1902 9.03614 40.1902H32.8643C34.372 40.1902 35.5986 38.9635 35.5986 37.4558V10.3468C35.5986 8.83913 34.372 7.61241 32.8643 7.61241ZM33.2549 37.4558C33.2549 37.6712 33.0797 37.8464 32.8643 37.8464H9.03614C8.82075 37.8464 8.64551 37.6712 8.64551 37.4558V29.9038V10.3468C8.64551 10.1314 8.82075 9.95616 9.03614 9.95616H32.8643C33.0797 9.95616 33.2549 10.1314 33.2549 10.3468V37.4558ZM28.0544 2.55288C28.2194 2.49851 28.3453 2.56366 28.4057 2.60734C28.4661 2.65101 28.5675 2.75015 28.5675 2.92382V7.61249H12.7141L28.0544 2.55288Z" fill="#EB662B"/>
<path d="M13.1377 23.509H14.5582H28.7627C29.4099 23.509 29.9346 22.9843 29.9346 22.3371C29.9346 21.6899 29.4099 21.1652 28.7627 21.1652H28.4232C27.9181 17.931 25.3563 15.3692 22.1221 14.8641V14.2769C22.1221 13.6297 21.5974 13.105 20.9502 13.105C20.303 13.105 19.7783 13.6297 19.7783 14.2769V14.8641C16.5441 15.3692 13.9823 17.931 13.4772 21.1652H13.1377C12.4905 21.1652 11.9658 21.6899 11.9658 22.3371C11.9658 22.9843 12.4905 23.509 13.1377 23.509ZM20.9502 17.1169C23.4258 17.1169 25.5044 18.8493 26.0378 21.1652H15.8626C16.396 18.8493 18.4747 17.1169 20.9502 17.1169Z" fill="#EB662B"/>
<path d="M13.5918 26.675C12.9446 26.675 12.4199 27.1996 12.4199 27.8468C12.4199 28.494 12.9446 29.0187 13.5918 29.0187H19.2168C19.864 29.0187 20.3887 28.494 20.3887 27.8468C20.3887 27.1996 19.864 26.675 19.2168 26.675H13.5918Z" fill="#EB662B"/>
<path d="M28.4697 31.3625H13.4307C12.7835 31.3625 12.2588 31.8872 12.2588 32.5344C12.2588 33.1816 12.7835 33.7062 13.4307 33.7062H28.4697C29.1169 33.7062 29.6416 33.1816 29.6416 32.5344C29.6416 31.8872 29.1169 31.3625 28.4697 31.3625Z" fill="#EB662B"/>
</g>
</g>
</g>
</g>
<defs>
<clipPath id="clip0_2103_9537">
<rect width="40" height="41" fill="white" transform="translate(0.950195 0.0900879)"/>
</clipPath>
<clipPath id="clip1_2103_9537">
<rect width="40" height="41" fill="white" transform="translate(0.950195 0.0900879)"/>
</clipPath>
<clipPath id="clip2_2103_9537">
<rect width="40" height="41" fill="white" transform="translate(0.950195 0.0900879)"/>
</clipPath>
</defs>
</svg>
