<svg id="visual" viewBox="0 0 900 600" width="900" height="600" xmlns="http://www.w3.org/2000/svg" xmlns:xlink="http://www.w3.org/1999/xlink" version="1.1"><path d="M71 0L61.2 8.3C51.3 16.7 31.7 33.3 21.7 50C11.7 66.7 11.3 83.3 14.2 100C17 116.7 23 133.3 26.2 150C29.3 166.7 29.7 183.3 32.5 200C35.3 216.7 40.7 233.3 38.2 250C35.7 266.7 25.3 283.3 20.2 300C15 316.7 15 333.3 17.2 350C19.3 366.7 23.7 383.3 32.2 400C40.7 416.7 53.3 433.3 58.2 450C63 466.7 60 483.3 52.3 500C44.7 516.7 32.3 533.3 35.2 550C38 566.7 56 583.3 65 591.7L74 600L0 600L0 591.7C0 583.3 0 566.7 0 550C0 533.3 0 516.7 0 500C0 483.3 0 466.7 0 450C0 433.3 0 416.7 0 400C0 383.3 0 366.7 0 350C0 333.3 0 316.7 0 300C0 283.3 0 266.7 0 250C0 233.3 0 216.7 0 200C0 183.3 0 166.7 0 150C0 133.3 0 116.7 0 100C0 83.3 0 66.7 0 50C0 33.3 0 16.7 0 8.3L0 0Z" fill="#EF8F57" stroke-linecap="round" stroke-linejoin="miter"></path></svg>