<svg id="visual" viewBox="0 0 900 600" width="900" height="600" xmlns="http://www.w3.org/2000/svg" xmlns:xlink="http://www.w3.org/1999/xlink" version="1.1"><path d="M56 0L55.3 4C54.7 8 53.3 16 49.2 24C45 32 38 40 32.7 48C27.3 56 23.7 64 21.8 72C20 80 20 88 28.7 96C37.3 104 54.7 112 60.2 120C65.7 128 59.3 136 58.3 144C57.3 152 61.7 160 57 168C52.3 176 38.7 184 36.7 192C34.7 200 44.3 208 47.2 216C50 224 46 232 40.8 240C35.7 248 29.3 256 26.8 264C24.3 272 25.7 280 28.2 288C30.7 296 34.3 304 34.7 312C35 320 32 328 37 336C42 344 55 352 57.5 360C60 368 52 376 50.2 384C48.3 392 52.7 400 51.2 408C49.7 416 42.3 424 44 432C45.7 440 56.3 448 60.8 456C65.3 464 63.7 472 60.3 480C57 488 52 496 45.8 504C39.7 512 32.3 520 29.3 528C26.3 536 27.7 544 26.8 552C26 560 23 568 28.7 576C34.3 584 48.7 592 55.8 596L63 600L0 600L0 596C0 592 0 584 0 576C0 568 0 560 0 552C0 544 0 536 0 528C0 520 0 512 0 504C0 496 0 488 0 480C0 472 0 464 0 456C0 448 0 440 0 432C0 424 0 416 0 408C0 400 0 392 0 384C0 376 0 368 0 360C0 352 0 344 0 336C0 328 0 320 0 312C0 304 0 296 0 288C0 280 0 272 0 264C0 256 0 248 0 240C0 232 0 224 0 216C0 208 0 200 0 192C0 184 0 176 0 168C0 160 0 152 0 144C0 136 0 128 0 120C0 112 0 104 0 96C0 88 0 80 0 72C0 64 0 56 0 48C0 40 0 32 0 24C0 16 0 8 0 4L0 0Z" fill="#EF8F57" stroke-linecap="round" stroke-linejoin="miter"></path></svg>