<svg id="visual" viewBox="0 0 900 600" width="900" height="600" xmlns="http://www.w3.org/2000/svg" xmlns:xlink="http://www.w3.org/1999/xlink" version="1.1"><path d="M831 600L840.8 591.7C850.7 583.3 870.3 566.7 880.3 550C890.3 533.3 890.7 516.7 887.8 500C885 483.3 879 466.7 875.8 450C872.7 433.3 872.3 416.7 869.5 400C866.7 383.3 861.3 366.7 863.8 350C866.3 333.3 876.7 316.7 881.8 300C887 283.3 887 266.7 884.8 250C882.7 233.3 878.3 216.7 869.8 200C861.3 183.3 848.7 166.7 843.8 150C839 133.3 842 116.7 849.7 100C857.3 83.3 869.7 66.7 866.8 50C864 33.3 846 16.7 837 8.3L828 0L900 0L900 8.3C900 16.7 900 33.3 900 50C900 66.7 900 83.3 900 100C900 116.7 900 133.3 900 150C900 166.7 900 183.3 900 200C900 216.7 900 233.3 900 250C900 266.7 900 283.3 900 300C900 316.7 900 333.3 900 350C900 366.7 900 383.3 900 400C900 416.7 900 433.3 900 450C900 466.7 900 483.3 900 500C900 516.7 900 533.3 900 550C900 566.7 900 583.3 900 591.7L900 600Z" fill="#EF8F57" stroke-linecap="round" stroke-linejoin="miter"></path></svg>