<svg id="visual" viewBox="0 0 900 600" width="900" height="600" xmlns="http://www.w3.org/2000/svg" xmlns:xlink="http://www.w3.org/1999/xlink" version="1.1"><path d="M846 600L846.7 596C847.3 592 848.7 584 852.8 576C857 568 864 560 869.3 552C874.7 544 878.3 536 880.2 528C882 520 882 512 873.3 504C864.7 496 847.3 488 841.8 480C836.3 472 842.7 464 843.7 456C844.7 448 840.3 440 845 432C849.7 424 863.3 416 865.3 408C867.3 400 857.7 392 854.8 384C852 376 856 368 861.2 360C866.3 352 872.7 344 875.2 336C877.7 328 876.3 320 873.8 312C871.3 304 867.7 296 867.3 288C867 280 870 272 865 264C860 256 847 248 844.5 240C842 232 850 224 851.8 216C853.7 208 849.3 200 850.8 192C852.3 184 859.7 176 858 168C856.3 160 845.7 152 841.2 144C836.7 136 838.3 128 841.7 120C845 112 850 104 856.2 96C862.3 88 869.7 80 872.7 72C875.7 64 874.3 56 875.2 48C876 40 879 32 873.3 24C867.7 16 853.3 8 846.2 4L839 0L900 0L900 4C900 8 900 16 900 24C900 32 900 40 900 48C900 56 900 64 900 72C900 80 900 88 900 96C900 104 900 112 900 120C900 128 900 136 900 144C900 152 900 160 900 168C900 176 900 184 900 192C900 200 900 208 900 216C900 224 900 232 900 240C900 248 900 256 900 264C900 272 900 280 900 288C900 296 900 304 900 312C900 320 900 328 900 336C900 344 900 352 900 360C900 368 900 376 900 384C900 392 900 400 900 408C900 416 900 424 900 432C900 440 900 448 900 456C900 464 900 472 900 480C900 488 900 496 900 504C900 512 900 520 900 528C900 536 900 544 900 552C900 560 900 568 900 576C900 584 900 592 900 596L900 600Z" fill="#EF8F57" stroke-linecap="round" stroke-linejoin="miter"></path></svg>