<svg width="41" height="42" viewBox="0 0 41 42" fill="none" xmlns="http://www.w3.org/2000/svg">
<g clip-path="url(#clip0_2103_9525)">
<g clip-path="url(#clip1_2103_9525)">
<mask id="mask0_2103_9525" style="mask-type:luminance" maskUnits="userSpaceOnUse" x="0" y="0" width="41" height="41">
<path d="M40.9707 0.190186H0.970703V40.1902H40.9707V0.190186Z" fill="white"/>
</mask>
<g mask="url(#mask0_2103_9525)">
<path d="M39.7988 37.7684H38.1012L34.9095 31.385C34.711 30.988 34.3052 30.7372 33.8613 30.7372H26.2548L20.7826 14.4055L33.0074 10.3189C33.7073 10.0849 34.0207 9.26755 33.6528 8.62513C30.5001 3.11903 24.0155 0.242235 16.7059 2.21333L16.3234 1.0688C16.1182 0.455047 15.4544 0.123563 14.8404 0.328876C14.2266 0.53411 13.8953 1.19802 14.1005 1.81185L14.4831 2.95638C7.46609 5.7738 4.00562 11.9669 4.79906 18.2707C4.89179 19.0072 5.63515 19.4688 6.33336 19.2358L18.5598 15.1487L23.783 30.7372H12.3643L2.90547 23.9269C2.38015 23.5487 1.64781 23.6679 1.26969 24.1931C0.891484 24.7183 1.01078 25.4507 1.53594 25.8289L10.6093 32.3617L8.86711 37.7685H2.14258C1.49539 37.7685 0.970703 38.2932 0.970703 38.9404C0.970703 39.5876 1.49539 40.1122 2.14258 40.1122H39.7988C40.446 40.1122 40.9707 39.5876 40.9707 38.9404C40.9707 38.2932 40.446 37.7684 39.7988 37.7684ZM16.326 4.77474C16.3258 4.77482 16.3262 4.77466 16.326 4.77474C16.3338 4.77584 17.7181 4.12989 20.1823 6.52427C21.4557 7.76153 22.5809 9.40919 23.3194 11.0862L14.535 14.0228C13.6055 10.0598 14.3912 5.42232 16.326 4.77474ZM30.8259 8.57693L25.5502 10.3405C24.539 7.96528 22.7962 5.5095 20.7884 3.94474C24.7634 3.80724 28.4363 5.36114 30.8259 8.57693ZM12.2627 6.79443C11.5945 9.27005 11.6898 12.2804 12.3059 14.768L7.02851 16.5322C7.00453 12.6228 8.91898 9.13396 12.2627 6.79443ZM33.137 33.0809L35.4808 37.7684H28.6108L27.0402 33.0809H33.137ZM12.8399 33.0809H24.5684L26.139 37.7684H11.3295L12.8399 33.0809Z" fill="#EB662B"/>
</g>
</g>
</g>
<defs>
<clipPath id="clip0_2103_9525">
<rect width="40" height="41" fill="white" transform="translate(0.970703 0.0900879)"/>
</clipPath>
<clipPath id="clip1_2103_9525">
<rect width="40" height="41" fill="white" transform="translate(0.970703 0.0900879)"/>
</clipPath>
</defs>
</svg>
