<svg width="41" height="42" viewBox="0 0 41 42" fill="none" xmlns="http://www.w3.org/2000/svg">
<path d="M35.3555 11.4402H34.7305V10.1902C34.7305 6.74394 31.9268 3.94019 28.4805 3.94019H13.4805C10.0342 3.94019 7.23047 6.74394 7.23047 10.1902V11.4402H6.60547C4.88172 11.4402 3.48047 12.8427 3.48047 14.5652V17.6902C3.48047 18.3802 4.03922 18.9402 4.73047 18.9402C5.42172 18.9402 5.98047 18.3802 5.98047 17.6902V14.5652C5.98047 14.2202 6.26172 13.9402 6.60547 13.9402H7.23047V26.4402C7.23047 28.4739 8.22172 30.2664 9.73047 31.4077V33.9402C9.73047 35.3189 10.8517 36.4402 12.2305 36.4402H14.7305C16.1092 36.4402 17.2305 35.3189 17.2305 33.9402V32.6902H24.7305V33.9402C24.7305 35.3189 25.8518 36.4402 27.2305 36.4402H29.7305C31.1092 36.4402 32.2305 35.3189 32.2305 33.9402V31.4077C33.7393 30.2652 34.7305 28.4727 34.7305 26.4402V13.9402H35.3555C35.6993 13.9402 35.9805 14.2202 35.9805 14.5652V17.6902C35.9805 18.3802 36.5393 18.9402 37.2305 18.9402C37.9217 18.9402 38.4805 18.3802 38.4805 17.6902V14.5652C38.4805 12.8427 37.0793 11.4402 35.3555 11.4402ZM9.73047 11.4402H32.2305V20.6464C31.0992 21.1589 29.8618 21.4402 28.6193 21.4402H13.3417C12.1005 21.4402 10.8617 21.1589 9.73047 20.6464V11.4402ZM13.4805 6.44019H28.4805C30.108 6.44019 31.483 7.48893 32.0005 8.94019H9.96047C10.478 7.48893 11.853 6.44019 13.4805 6.44019ZM14.7305 33.9402H12.2305V32.5639C12.6343 32.6464 13.053 32.6902 13.4805 32.6902H14.7305V33.9402ZM29.7305 33.9402H27.2305V32.6902H28.4805C28.908 32.6902 29.3268 32.6464 29.7305 32.5639V33.9402ZM28.4805 30.1902H13.4805C11.413 30.1902 9.73047 28.5077 9.73047 26.4402V23.3327C10.893 23.7252 12.1167 23.9402 13.3417 23.9402H28.6205C29.8455 23.9402 31.0692 23.7252 32.2317 23.3327V26.4402C32.2317 28.5077 30.548 30.1902 28.4805 30.1902Z" fill="#EB662B"/>
<path d="M13.4805 27.6902C14.1709 27.6902 14.7305 27.1306 14.7305 26.4402C14.7305 25.7498 14.1709 25.1902 13.4805 25.1902C12.7901 25.1902 12.2305 25.7498 12.2305 26.4402C12.2305 27.1306 12.7901 27.6902 13.4805 27.6902Z" fill="#EB662B"/>
<path d="M28.4805 27.6902C29.1709 27.6902 29.7305 27.1306 29.7305 26.4402C29.7305 25.7498 29.1709 25.1902 28.4805 25.1902C27.7901 25.1902 27.2305 25.7498 27.2305 26.4402C27.2305 27.1306 27.7901 27.6902 28.4805 27.6902Z" fill="#EB662B"/>
</svg>
